<?xml version="1.0" encoding="UTF-8" standalone="no"?>
<!-- Created with Inkscape (http://www.inkscape.org/) -->

<svg
   version="1.1"
   id="svg2"
   xml:space="preserve"
   width="113.20267"
   height="83.856003"
   viewBox="0 0 113.20267 83.856003"
   sodipodi:docname="figure.pdf"
   xmlns:inkscape="http://www.inkscape.org/namespaces/inkscape"
   xmlns:sodipodi="http://sodipodi.sourceforge.net/DTD/sodipodi-0.dtd"
   xmlns="http://www.w3.org/2000/svg"
   xmlns:svg="http://www.w3.org/2000/svg"><defs
     id="defs6" /><sodipodi:namedview
     id="namedview4"
     pagecolor="#ffffff"
     bordercolor="#666666"
     borderopacity="1.0"
     inkscape:pageshadow="2"
     inkscape:pageopacity="0.0"
     inkscape:pagecheckerboard="0" /><g
     id="g8"
     inkscape:groupmode="layer"
     inkscape:label="figure"
     transform="matrix(1.3333333,0,0,-1.3333333,0,83.856)"><g
       id="g10"
       transform="translate(14.312,6.724)"><g
         id="g12"><g
           id="g14"><g
             id="g16"><g
               id="g18"><path
                 d="M 0,0 H 56.69362 L 28.3468,42.5202 Z"
                 style="fill:#e6e6e6;fill-opacity:1;fill-rule:nonzero;stroke:none"
                 id="path20" /></g></g><path
             d="M 0,0 H 56.69362 L 28.3468,42.5202 Z"
             style="fill:none;stroke:#000000;stroke-width:0.3985;stroke-linecap:butt;stroke-linejoin:miter;stroke-miterlimit:10;stroke-dasharray:none;stroke-opacity:1"
             id="path22" /><g
             id="g24"><path
               d="m 1.99255,28.3468 c 0,1.10048 -0.89209,1.99256 -1.99255,1.99256 -1.10046,0 -1.99255,-0.89208 -1.99255,-1.99256 0,-1.10046 0.89209,-1.99255 1.99255,-1.99255 1.10046,0 1.99255,0.89209 1.99255,1.99255 z"
               style="fill:#000000;fill-opacity:1;fill-rule:nonzero;stroke:#000000;stroke-width:0.3985;stroke-linecap:butt;stroke-linejoin:miter;stroke-miterlimit:10;stroke-dasharray:none;stroke-opacity:1"
               id="path26" /><g
               id="g28"><g
                 id="g30"
                 transform="translate(-10.991,24.943)"><g
                   id="g32"><g
                     id="g34"
                     transform="translate(-3.321,-31.667)"><text
                       transform="matrix(1,0,0,-1,3.321,31.667)"
                       style="font-variant:normal;font-weight:normal;font-size:9.9626px;font-family:CMR10;-inkscape-font-specification:CMR10;writing-mode:lr-tb;fill:#000000;fill-opacity:1;fill-rule:nonzero;stroke:none"
                       id="text38"><tspan
                         x="0"
                         y="0"
                         id="tspan36">A</tspan></text><g
                       id="g40"
                       transform="translate(3.321,31.667)" /></g></g><g
                   id="g42"
                   transform="translate(10.991,-24.943)" /></g></g></g><g
             id="g44"><path
               d="m 58.68617,0 c 0,1.10046 -0.89209,1.99255 -1.99255,1.99255 -1.10048,0 -1.99255,-0.89209 -1.99255,-1.99255 0,-1.10046 0.89207,-1.99255 1.99255,-1.99255 1.10046,0 1.99255,0.89209 1.99255,1.99255 z"
               style="fill:#000000;fill-opacity:1;fill-rule:nonzero;stroke:#000000;stroke-width:0.3985;stroke-linecap:butt;stroke-linejoin:miter;stroke-miterlimit:10;stroke-dasharray:none;stroke-opacity:1"
               id="path46" /><g
               id="g48"><g
                 id="g50"
                 transform="translate(60.213,-3.403)"><g
                   id="g52"><g
                     id="g54"
                     transform="translate(-74.525,-3.321)"><text
                       transform="matrix(1,0,0,-1,74.525,3.321)"
                       style="font-variant:normal;font-weight:normal;font-size:9.9626px;font-family:CMR10;-inkscape-font-specification:CMR10;writing-mode:lr-tb;fill:#000000;fill-opacity:1;fill-rule:nonzero;stroke:none"
                       id="text58"><tspan
                         x="0"
                         y="0"
                         id="tspan56">B</tspan></text><g
                       id="g60"
                       transform="translate(74.525,3.321)" /></g></g><g
                   id="g62"
                   transform="translate(-60.213,3.403)" /></g></g></g><g
             id="g64"><path
               d="m 30.33936,42.5202 c 0,1.10047 -0.89208,1.99256 -1.99256,1.99256 -1.10046,0 -1.99255,-0.89209 -1.99255,-1.99256 0,-1.10048 0.89209,-1.99255 1.99255,-1.99255 1.10048,0 1.99256,0.89207 1.99256,1.99255 z"
               style="fill:#000000;fill-opacity:1;fill-rule:nonzero;stroke:#000000;stroke-width:0.3985;stroke-linecap:butt;stroke-linejoin:miter;stroke-miterlimit:10;stroke-dasharray:none;stroke-opacity:1"
               id="path66" /><g
               id="g68"><g
                 id="g70"
                 transform="translate(24.749,46.04)"><g
                   id="g72"><g
                     id="g74"
                     transform="translate(-39.061,-52.764)"><text
                       transform="matrix(1,0,0,-1,39.061,52.764)"
                       style="font-variant:normal;font-weight:normal;font-size:9.9626px;font-family:CMR10;-inkscape-font-specification:CMR10;writing-mode:lr-tb;fill:#000000;fill-opacity:1;fill-rule:nonzero;stroke:none"
                       id="text78"><tspan
                         x="0"
                         y="0"
                         id="tspan76">C</tspan></text><g
                       id="g80"
                       transform="translate(39.061,52.764)" /></g></g><g
                   id="g82"
                   transform="translate(-24.749,-46.04)" /></g></g></g></g></g></g></g></svg>
