<?xml version="1.0" encoding="UTF-8" standalone="no"?>
<!DOCTYPE svg PUBLIC "-//W3C//DTD SVG 1.1//EN"
 "http://www.w3.org/Graphics/SVG/1.1/DTD/svg11.dtd">
<!-- Generated by graphviz version 2.43.0 (0)
 -->
<!-- Title: HMM Pages: 1 -->
<svg width="479pt" height="231pt"
 viewBox="0.00 0.00 479.19 230.81" xmlns="http://www.w3.org/2000/svg" xmlns:xlink="http://www.w3.org/1999/xlink">
<g id="graph0" class="graph" transform="scale(1 1) rotate(0) translate(4 226.81)">
<title>HMM</title>
<polygon fill="white" stroke="transparent" points="-4,4 -4,-226.81 475.19,-226.81 475.19,4 -4,4"/>
<!-- S1 -->
<g id="node1" class="node">
<title>S1</title>
<ellipse fill="lightblue" stroke="black" cx="66.95" cy="-49.81" rx="23" ry="23"/>
<text text-anchor="middle" x="66.95" y="-46.11" font-family="Times,serif" font-size="14.00">S1</text>
</g>
<!-- S1&#45;&gt;S1 -->
<g id="edge2" class="edge">
<title>S1&#45;&gt;S1</title>
<path fill="none" stroke="black" d="M59.6,-71.61C58.79,-81.72 61.24,-90.55 66.95,-90.55 70.6,-90.55 72.92,-86.93 73.9,-81.66"/>
<polygon fill="black" stroke="black" points="77.4,-81.74 74.3,-71.61 70.41,-81.46 77.4,-81.74"/>
<text text-anchor="middle" x="66.95" y="-94.35" font-family="Times,serif" font-size="14.00">a11</text>
</g>
<!-- S2 -->
<g id="node2" class="node">
<title>S2</title>
<ellipse fill="lightblue" stroke="black" cx="175.44" cy="-104.81" rx="23" ry="23"/>
<text text-anchor="middle" x="175.44" y="-101.11" font-family="Times,serif" font-size="14.00">S2</text>
</g>
<!-- S1&#45;&gt;S2 -->
<g id="edge3" class="edge">
<title>S1&#45;&gt;S2</title>
<path fill="none" stroke="black" d="M83.94,-65.44C90.82,-71.51 99.22,-78.11 107.7,-82.81 118.76,-88.93 131.8,-93.7 143.41,-97.21"/>
<polygon fill="black" stroke="black" points="142.59,-100.62 153.16,-99.97 144.49,-93.88 142.59,-100.62"/>
<text text-anchor="middle" x="121.2" y="-98.61" font-family="Times,serif" font-size="14.00">a12</text>
</g>
<!-- S3 -->
<g id="node3" class="node">
<title>S3</title>
<ellipse fill="lightblue" stroke="black" cx="307.69" cy="-42.81" rx="23" ry="23"/>
<text text-anchor="middle" x="307.69" y="-39.11" font-family="Times,serif" font-size="14.00">S3</text>
</g>
<!-- S1&#45;&gt;S3 -->
<g id="edge4" class="edge">
<title>S1&#45;&gt;S3</title>
<path fill="none" stroke="black" d="M89.98,-49.16C132.35,-47.92 225.36,-45.19 274.61,-43.75"/>
<polygon fill="black" stroke="black" points="274.82,-47.24 284.71,-43.45 274.61,-40.25 274.82,-47.24"/>
<text text-anchor="middle" x="175.44" y="-51.61" font-family="Times,serif" font-size="14.00">a13</text>
</g>
<!-- O1 -->
<g id="node4" class="node">
<title>O1</title>
<polygon fill="lightyellow" stroke="black" points="471.19,-203.81 417.19,-203.81 417.19,-167.81 471.19,-167.81 471.19,-203.81"/>
<text text-anchor="middle" x="444.19" y="-182.11" font-family="Times,serif" font-size="14.00">O1</text>
</g>
<!-- S1&#45;&gt;O1 -->
<g id="edge11" class="edge">
<title>S1&#45;&gt;O1</title>
<path fill="none" stroke="black" stroke-dasharray="5,2" d="M76.36,-70.82C88.65,-98.54 114.32,-146.52 152.7,-169.81 246.88,-226.94 289.72,-208.09 399.19,-195.81 401.71,-195.52 404.3,-195.15 406.89,-194.72"/>
<polygon fill="black" stroke="black" points="407.68,-198.13 416.83,-192.8 406.35,-191.26 407.68,-198.13"/>
<text text-anchor="middle" x="240.69" y="-211.61" font-family="Times,serif" font-size="14.00">b1(O1)</text>
</g>
<!-- O2 -->
<g id="node5" class="node">
<title>O2</title>
<polygon fill="lightyellow" stroke="black" points="471.19,-60.81 417.19,-60.81 417.19,-24.81 471.19,-24.81 471.19,-60.81"/>
<text text-anchor="middle" x="444.19" y="-39.11" font-family="Times,serif" font-size="14.00">O2</text>
</g>
<!-- S1&#45;&gt;O2 -->
<g id="edge12" class="edge">
<title>S1&#45;&gt;O2</title>
<path fill="none" stroke="black" stroke-dasharray="5,2" d="M86.75,-37.72C93.18,-34.05 100.56,-30.33 107.7,-27.81 202.05,5.51 233.33,4.67 332.19,-10.81 357.85,-14.82 385.95,-22.96 407.46,-30.03"/>
<polygon fill="black" stroke="black" points="406.55,-33.42 417.15,-33.28 408.78,-26.78 406.55,-33.42"/>
<text text-anchor="middle" x="240.69" y="-6.61" font-family="Times,serif" font-size="14.00">b1(O2)</text>
</g>
<!-- S2&#45;&gt;S1 -->
<g id="edge5" class="edge">
<title>S2&#45;&gt;S1</title>
<path fill="none" stroke="black" d="M161.18,-86.83C154.19,-78.61 144.94,-69.45 134.7,-63.81 124.14,-57.99 111.42,-54.58 99.93,-52.59"/>
<polygon fill="black" stroke="black" points="100.21,-49.09 89.82,-51.13 99.21,-56.02 100.21,-49.09"/>
<text text-anchor="middle" x="121.2" y="-67.61" font-family="Times,serif" font-size="14.00">a21</text>
</g>
<!-- S2&#45;&gt;S2 -->
<g id="edge6" class="edge">
<title>S2&#45;&gt;S2</title>
<path fill="none" stroke="black" d="M165.67,-125.35C164.17,-135.98 167.43,-145.55 175.44,-145.55 180.7,-145.55 183.91,-141.43 185.08,-135.59"/>
<polygon fill="black" stroke="black" points="188.58,-135.4 185.21,-125.35 181.58,-135.3 188.58,-135.4"/>
<text text-anchor="middle" x="175.44" y="-149.35" font-family="Times,serif" font-size="14.00">a22</text>
</g>
<!-- S2&#45;&gt;S3 -->
<g id="edge7" class="edge">
<title>S2&#45;&gt;S3</title>
<path fill="none" stroke="black" d="M198.4,-102.59C217.11,-99.97 244.21,-94.4 265.19,-82.81 272.46,-78.79 279.37,-73.17 285.4,-67.42"/>
<polygon fill="black" stroke="black" points="288.02,-69.75 292.52,-60.16 283.02,-64.85 288.02,-69.75"/>
<text text-anchor="middle" x="240.69" y="-103.61" font-family="Times,serif" font-size="14.00">a23</text>
</g>
<!-- S2&#45;&gt;O1 -->
<g id="edge13" class="edge">
<title>S2&#45;&gt;O1</title>
<path fill="none" stroke="black" stroke-dasharray="5,2" d="M190.82,-121.64C197.8,-128.84 206.72,-136.73 216.19,-141.81 277.57,-174.71 360.01,-183.22 406.78,-185.29"/>
<polygon fill="black" stroke="black" points="406.91,-188.8 417.03,-185.67 407.16,-181.8 406.91,-188.8"/>
<text text-anchor="middle" x="307.69" y="-180.61" font-family="Times,serif" font-size="14.00">b2(O1)</text>
</g>
<!-- S2&#45;&gt;O2 -->
<g id="edge14" class="edge">
<title>S2&#45;&gt;O2</title>
<path fill="none" stroke="black" stroke-dasharray="5,2" d="M196.6,-113.35C237.86,-129.39 333.57,-159.13 399.19,-120.81 417.49,-110.12 428.77,-88.71 435.32,-71.02"/>
<polygon fill="black" stroke="black" points="438.78,-71.74 438.65,-61.15 432.14,-69.51 438.78,-71.74"/>
<text text-anchor="middle" x="307.69" y="-142.61" font-family="Times,serif" font-size="14.00">b2(O2)</text>
</g>
<!-- S3&#45;&gt;S1 -->
<g id="edge8" class="edge">
<title>S3&#45;&gt;S1</title>
<path fill="none" stroke="black" d="M285.47,-37.74C255.73,-31.31 199.99,-21.77 152.7,-27.81 134.51,-30.13 114.66,-35.14 98.74,-39.8"/>
<polygon fill="black" stroke="black" points="97.46,-36.53 88.9,-42.78 99.49,-43.23 97.46,-36.53"/>
<text text-anchor="middle" x="175.44" y="-31.61" font-family="Times,serif" font-size="14.00">a31</text>
</g>
<!-- S3&#45;&gt;S2 -->
<g id="edge9" class="edge">
<title>S3&#45;&gt;S2</title>
<path fill="none" stroke="black" d="M284.96,-44.37C265.81,-46.53 237.68,-51.66 216.19,-63.81 209.03,-67.85 202.34,-73.58 196.56,-79.48"/>
<polygon fill="black" stroke="black" points="193.92,-77.18 189.76,-86.93 199.09,-81.9 193.92,-77.18"/>
<text text-anchor="middle" x="240.69" y="-67.61" font-family="Times,serif" font-size="14.00">a32</text>
</g>
<!-- S3&#45;&gt;S3 -->
<g id="edge10" class="edge">
<title>S3&#45;&gt;S3</title>
<path fill="none" stroke="black" d="M295.91,-62.51C293.71,-73.47 297.64,-83.55 307.69,-83.55 314.45,-83.55 318.44,-79 319.66,-72.69"/>
<polygon fill="black" stroke="black" points="323.16,-72.45 319.47,-62.51 316.16,-72.57 323.16,-72.45"/>
<text text-anchor="middle" x="307.69" y="-87.35" font-family="Times,serif" font-size="14.00">a33</text>
</g>
<!-- S3&#45;&gt;O1 -->
<g id="edge15" class="edge">
<title>S3&#45;&gt;O1</title>
<path fill="none" stroke="black" stroke-dasharray="5,2" d="M323.86,-58.93C347.07,-83.61 391.6,-130.95 419.21,-160.31"/>
<polygon fill="black" stroke="black" points="416.78,-162.84 426.18,-167.72 421.88,-158.04 416.78,-162.84"/>
<text text-anchor="middle" x="374.69" y="-138.61" font-family="Times,serif" font-size="14.00">b3(O1)</text>
</g>
<!-- S3&#45;&gt;O2 -->
<g id="edge16" class="edge">
<title>S3&#45;&gt;O2</title>
<path fill="none" stroke="black" stroke-dasharray="5,2" d="M330.6,-42.81C351.22,-42.81 382.49,-42.81 406.84,-42.81"/>
<polygon fill="black" stroke="black" points="407.14,-46.31 417.14,-42.81 407.14,-39.31 407.14,-46.31"/>
<text text-anchor="middle" x="374.69" y="-46.61" font-family="Times,serif" font-size="14.00">b3(O2)</text>
</g>
<!-- Start -->
<g id="node6" class="node">
<title>Start</title>
<ellipse fill="lightyellow" stroke="black" cx="3.6" cy="-49.81" rx="3.6" ry="3.6"/>
</g>
<!-- Start&#45;&gt;S1 -->
<g id="edge1" class="edge">
<title>Start&#45;&gt;S1</title>
<path fill="none" stroke="black" d="M7.24,-49.81C12.08,-49.81 22.93,-49.81 34,-49.81"/>
<polygon fill="black" stroke="black" points="34.06,-53.31 44.06,-49.81 34.06,-46.31 34.06,-53.31"/>
</g>
</g>
</svg>
